<mxfile host="app.diagrams.net" modified="2022-01-21T19:18:07.783Z" agent="5.0 (Windows)" etag="IQdf1Y0I8o3Jxy_Zsdf9" version="16.4.3" type="github">
  <diagram id="cntCQI1XtZ0V-IBXsAYO" name="Page-1">
    <mxGraphModel dx="626" dy="919" grid="1" gridSize="10" guides="1" tooltips="1" connect="1" arrows="1" fold="1" page="0" pageScale="1" pageWidth="850" pageHeight="1100" background="none" math="0" shadow="0">
      <root>
        <mxCell id="0" />
        <mxCell id="1" parent="0" />
        <mxCell id="JhU5XzfLM84dEJPygy17-31" value="" style="group" parent="1" vertex="1" connectable="0">
          <mxGeometry x="800" y="250" width="280" height="150" as="geometry" />
        </mxCell>
        <mxCell id="JhU5XzfLM84dEJPygy17-21" value="" style="ellipse;whiteSpace=wrap;html=1;aspect=fixed;strokeColor=#000000;strokeWidth=10;fillColor=none;" parent="JhU5XzfLM84dEJPygy17-31" vertex="1">
          <mxGeometry x="100" y="70" width="80" height="80" as="geometry" />
        </mxCell>
        <mxCell id="JhU5XzfLM84dEJPygy17-22" value="" style="endArrow=none;html=1;rounded=0;strokeColor=#000000;strokeWidth=2;exitX=1;exitY=0;exitDx=0;exitDy=0;" parent="JhU5XzfLM84dEJPygy17-31" source="JhU5XzfLM84dEJPygy17-21" edge="1">
          <mxGeometry width="50" height="50" relative="1" as="geometry">
            <mxPoint x="60" y="290" as="sourcePoint" />
            <mxPoint x="250" as="targetPoint" />
          </mxGeometry>
        </mxCell>
        <mxCell id="JhU5XzfLM84dEJPygy17-23" value="" style="endArrow=none;html=1;rounded=0;strokeColor=#000000;strokeWidth=2;" parent="JhU5XzfLM84dEJPygy17-31" edge="1">
          <mxGeometry width="50" height="50" relative="1" as="geometry">
            <mxPoint x="250" as="sourcePoint" />
            <mxPoint x="280" y="40" as="targetPoint" />
          </mxGeometry>
        </mxCell>
        <mxCell id="JhU5XzfLM84dEJPygy17-29" value="" style="endArrow=none;html=1;rounded=0;strokeColor=#000000;strokeWidth=2;exitX=0;exitY=0;exitDx=0;exitDy=0;" parent="JhU5XzfLM84dEJPygy17-31" source="JhU5XzfLM84dEJPygy17-21" edge="1">
          <mxGeometry width="50" height="50" relative="1" as="geometry">
            <mxPoint x="-320" y="280" as="sourcePoint" />
            <mxPoint x="50" as="targetPoint" />
          </mxGeometry>
        </mxCell>
        <mxCell id="JhU5XzfLM84dEJPygy17-30" value="" style="endArrow=none;html=1;rounded=0;strokeColor=#000000;strokeWidth=2;" parent="JhU5XzfLM84dEJPygy17-31" edge="1">
          <mxGeometry width="50" height="50" relative="1" as="geometry">
            <mxPoint x="10" y="40" as="sourcePoint" />
            <mxPoint x="50" as="targetPoint" />
          </mxGeometry>
        </mxCell>
        <mxCell id="lxHX1XtzStGHGu_6xuMs-12" value="" style="rounded=0;whiteSpace=wrap;html=1;strokeColor=none;strokeWidth=1;fillColor=#000000;" vertex="1" parent="1">
          <mxGeometry width="688" height="25" as="geometry" />
        </mxCell>
        <mxCell id="lxHX1XtzStGHGu_6xuMs-13" value="" style="rounded=0;whiteSpace=wrap;html=1;strokeColor=none;strokeWidth=1;fillColor=#000000;" vertex="1" parent="1">
          <mxGeometry x="438" y="-245" width="12" height="245" as="geometry" />
        </mxCell>
        <mxCell id="lxHX1XtzStGHGu_6xuMs-14" value="" style="rounded=0;whiteSpace=wrap;html=1;strokeColor=none;strokeWidth=1;fillColor=#000000;" vertex="1" parent="1">
          <mxGeometry x="438" y="-205" width="292" height="12" as="geometry" />
        </mxCell>
        <mxCell id="lxHX1XtzStGHGu_6xuMs-15" value="" style="rounded=0;whiteSpace=wrap;html=1;strokeColor=none;strokeWidth=1;fillColor=#000000;direction=east;" vertex="1" parent="1">
          <mxGeometry x="-25" y="-400" width="25" height="425" as="geometry" />
        </mxCell>
        <mxCell id="lxHX1XtzStGHGu_6xuMs-16" value="" style="rounded=0;whiteSpace=wrap;html=1;strokeColor=none;strokeWidth=1;fillColor=#000000;" vertex="1" parent="1">
          <mxGeometry x="-25" y="-400" width="305" height="25" as="geometry" />
        </mxCell>
        <mxCell id="lxHX1XtzStGHGu_6xuMs-17" value="" style="rounded=0;whiteSpace=wrap;html=1;strokeColor=none;strokeWidth=1;fillColor=#000000;" vertex="1" parent="1">
          <mxGeometry x="280" y="-387" width="450" height="12" as="geometry" />
        </mxCell>
        <mxCell id="lxHX1XtzStGHGu_6xuMs-23" value="" style="group" vertex="1" connectable="0" parent="1">
          <mxGeometry x="5.363575967998116" y="300" width="139.27284806400377" height="169.63642403200186" as="geometry" />
        </mxCell>
        <mxCell id="lxHX1XtzStGHGu_6xuMs-18" value="" style="verticalLabelPosition=bottom;verticalAlign=top;html=1;shape=mxgraph.basic.arc;startAngle=0.5992652111524084;endAngle=0.1;fillColor=none;rotation=55;strokeWidth=2;strokeColor=#0055FF;" vertex="1" parent="lxHX1XtzStGHGu_6xuMs-23">
          <mxGeometry x="19.636424032001884" y="50" width="100" height="100" as="geometry" />
        </mxCell>
        <mxCell id="lxHX1XtzStGHGu_6xuMs-21" value="" style="endArrow=none;html=1;rounded=0;strokeColor=#0055FF;strokeWidth=2;" edge="1" parent="lxHX1XtzStGHGu_6xuMs-23">
          <mxGeometry width="50" height="50" relative="1" as="geometry">
            <mxPoint x="19.636424032001884" y="50" as="sourcePoint" />
            <mxPoint x="119.63642403200188" y="50" as="targetPoint" />
          </mxGeometry>
        </mxCell>
        <mxCell id="lxHX1XtzStGHGu_6xuMs-22" value="" style="endArrow=none;html=1;rounded=0;strokeColor=#0055FF;strokeWidth=2;" edge="1" parent="lxHX1XtzStGHGu_6xuMs-23">
          <mxGeometry width="50" height="50" relative="1" as="geometry">
            <mxPoint x="69.63642403200188" y="50" as="sourcePoint" />
            <mxPoint x="69.63642403200188" as="targetPoint" />
          </mxGeometry>
        </mxCell>
        <mxCell id="lxHX1XtzStGHGu_6xuMs-28" value="" style="rounded=0;whiteSpace=wrap;html=1;strokeColor=#000000;strokeWidth=1;fillColor=none;" vertex="1" parent="1">
          <mxGeometry x="380" y="-60" width="60" height="60" as="geometry" />
        </mxCell>
        <mxCell id="lxHX1XtzStGHGu_6xuMs-29" value="" style="rounded=0;whiteSpace=wrap;html=1;strokeColor=#000000;strokeWidth=1;fillColor=none;" vertex="1" parent="1">
          <mxGeometry x="320" y="-60" width="60" height="60" as="geometry" />
        </mxCell>
        <mxCell id="lxHX1XtzStGHGu_6xuMs-30" value="" style="rounded=0;whiteSpace=wrap;html=1;strokeColor=#000000;strokeWidth=1;fillColor=none;" vertex="1" parent="1">
          <mxGeometry x="260" y="-60" width="60" height="60" as="geometry" />
        </mxCell>
        <mxCell id="lxHX1XtzStGHGu_6xuMs-31" value="" style="rounded=0;whiteSpace=wrap;html=1;strokeColor=#000000;strokeWidth=1;fillColor=none;" vertex="1" parent="1">
          <mxGeometry x="200" y="-60" width="60" height="60" as="geometry" />
        </mxCell>
        <mxCell id="lxHX1XtzStGHGu_6xuMs-32" value="" style="rounded=0;whiteSpace=wrap;html=1;strokeColor=#000000;strokeWidth=1;fillColor=none;" vertex="1" parent="1">
          <mxGeometry x="320" y="-240" width="120" height="90" as="geometry" />
        </mxCell>
        <mxCell id="lxHX1XtzStGHGu_6xuMs-33" value="" style="rounded=0;whiteSpace=wrap;html=1;strokeColor=#000000;strokeWidth=1;fillColor=#000000;perimeterSpacing=1;" vertex="1" parent="1">
          <mxGeometry x="450" y="-60" width="60" height="60" as="geometry" />
        </mxCell>
        <mxCell id="lxHX1XtzStGHGu_6xuMs-35" value="" style="rounded=0;whiteSpace=wrap;html=1;strokeColor=none;strokeWidth=1;fillColor=#000000;" vertex="1" parent="1">
          <mxGeometry x="730" y="-691" width="25" height="716" as="geometry" />
        </mxCell>
        <mxCell id="lxHX1XtzStGHGu_6xuMs-36" value="" style="rounded=0;whiteSpace=wrap;html=1;strokeColor=none;strokeWidth=1;fillColor=#000000;" vertex="1" parent="1">
          <mxGeometry x="688" y="-200" width="42" height="225" as="geometry" />
        </mxCell>
        <mxCell id="lxHX1XtzStGHGu_6xuMs-37" value="" style="rounded=0;whiteSpace=wrap;html=1;strokeColor=none;strokeWidth=1;fillColor=default;" vertex="1" parent="1">
          <mxGeometry x="450" y="-50" width="50" height="50" as="geometry" />
        </mxCell>
        <mxCell id="lxHX1XtzStGHGu_6xuMs-38" value="" style="rounded=0;whiteSpace=wrap;html=1;strokeColor=none;strokeWidth=1;fillColor=default;" vertex="1" parent="1">
          <mxGeometry x="-25" y="-284" width="25" height="194" as="geometry" />
        </mxCell>
        <mxCell id="lxHX1XtzStGHGu_6xuMs-39" value="" style="rounded=0;whiteSpace=wrap;html=1;strokeColor=none;strokeWidth=1;fillColor=#000000;" vertex="1" parent="1">
          <mxGeometry x="255" y="-693" width="500" height="25" as="geometry" />
        </mxCell>
        <mxCell id="lxHX1XtzStGHGu_6xuMs-40" value="" style="rounded=0;whiteSpace=wrap;html=1;strokeColor=none;strokeWidth=1;fillColor=#000000;" vertex="1" parent="1">
          <mxGeometry x="255" y="-693" width="25" height="316" as="geometry" />
        </mxCell>
        <mxCell id="lxHX1XtzStGHGu_6xuMs-43" value="" style="group" vertex="1" connectable="0" parent="1">
          <mxGeometry x="519.1103644996447" y="-20.74861197659201" width="29.275877138509486" height="20.75206143074513" as="geometry" />
        </mxCell>
        <mxCell id="JhU5XzfLM84dEJPygy17-3" value="" style="verticalLabelPosition=bottom;verticalAlign=top;html=1;shape=mxgraph.basic.arc;startAngle=0.5992652111524084;endAngle=0.1;fillColor=none;rotation=-125;strokeWidth=1;strokeColor=#0055FF;" parent="lxHX1XtzStGHGu_6xuMs-43" vertex="1">
          <mxGeometry x="14.63793856925463" y="2.4039972236569938" width="12.237075889265887" height="12.232042804725426" as="geometry" />
        </mxCell>
        <mxCell id="JhU5XzfLM84dEJPygy17-4" value="" style="verticalLabelPosition=bottom;verticalAlign=top;html=1;shape=mxgraph.basic.arc;startAngle=0.5992652111524084;endAngle=0.1;fillColor=none;rotation=-125;strokeWidth=1;strokeColor=#0055FF;" parent="lxHX1XtzStGHGu_6xuMs-43" vertex="1">
          <mxGeometry x="2.4008626799887907" y="2.4039972236569938" width="12.237075889265887" height="12.232042804725426" as="geometry" />
        </mxCell>
        <mxCell id="JhU5XzfLM84dEJPygy17-5" value="" style="endArrow=none;html=1;rounded=0;strokeWidth=1;strokeColor=#0055FF;" parent="lxHX1XtzStGHGu_6xuMs-43" edge="1">
          <mxGeometry width="50" height="50" relative="1" as="geometry">
            <mxPoint x="26.87501445852058" y="14.636040028382418" as="sourcePoint" />
            <mxPoint x="2.4008626799887907" y="14.636040028382418" as="targetPoint" />
          </mxGeometry>
        </mxCell>
        <mxCell id="JhU5XzfLM84dEJPygy17-6" value="" style="endArrow=none;html=1;rounded=0;strokeWidth=1;strokeColor=#0055FF;" parent="lxHX1XtzStGHGu_6xuMs-43" edge="1">
          <mxGeometry width="50" height="50" relative="1" as="geometry">
            <mxPoint x="14.63793856925463" y="14.636040028382418" as="sourcePoint" />
            <mxPoint x="14.63793856925463" y="20.75206143074513" as="targetPoint" />
          </mxGeometry>
        </mxCell>
        <mxCell id="lxHX1XtzStGHGu_6xuMs-49" value="" style="group" vertex="1" connectable="0" parent="1">
          <mxGeometry x="550" y="-60" width="22.35" height="30" as="geometry" />
        </mxCell>
        <mxCell id="lxHX1XtzStGHGu_6xuMs-48" style="edgeStyle=orthogonalEdgeStyle;rounded=0;orthogonalLoop=1;jettySize=auto;html=1;strokeColor=#000000;strokeWidth=1;endArrow=none;endFill=0;" edge="1" parent="lxHX1XtzStGHGu_6xuMs-49" source="JhU5XzfLM84dEJPygy17-13">
          <mxGeometry relative="1" as="geometry">
            <mxPoint x="4.2109196290572815" y="30" as="targetPoint" />
          </mxGeometry>
        </mxCell>
        <mxCell id="JhU5XzfLM84dEJPygy17-13" value="" style="ellipse;whiteSpace=wrap;html=1;aspect=fixed;strokeColor=#000000;strokeWidth=3;fillColor=none;rotation=-180;container=0;" parent="lxHX1XtzStGHGu_6xuMs-49" vertex="1">
          <mxGeometry width="8.421839258114368" height="8.421839258114368" as="geometry" />
        </mxCell>
        <mxCell id="JhU5XzfLM84dEJPygy17-14" value="" style="endArrow=none;html=1;rounded=0;strokeColor=#000000;strokeWidth=1;exitX=0;exitY=0;exitDx=0;exitDy=0;" parent="lxHX1XtzStGHGu_6xuMs-49" source="JhU5XzfLM84dEJPygy17-13" edge="1">
          <mxGeometry width="50" height="50" relative="1" as="geometry">
            <mxPoint x="18.204714064914995" y="-20.99999999999994" as="sourcePoint" />
            <mxPoint x="16.82295208655333" y="22.499999999999936" as="targetPoint" />
          </mxGeometry>
        </mxCell>
        <mxCell id="JhU5XzfLM84dEJPygy17-15" value="" style="endArrow=none;html=1;rounded=0;strokeColor=#000000;strokeWidth=1;" parent="lxHX1XtzStGHGu_6xuMs-49" edge="1">
          <mxGeometry width="50" height="50" relative="1" as="geometry">
            <mxPoint x="16.82295208655333" y="22.499999999999936" as="sourcePoint" />
            <mxPoint x="22.35" y="17.99999999999995" as="targetPoint" />
          </mxGeometry>
        </mxCell>
      </root>
    </mxGraphModel>
  </diagram>
</mxfile>
